# AST/ASF file generated using VICON BodyLanguage
# -----------------------------------------------
:version 1.10
:name VICON
:units
  mass 1.0
  length 0.45
  angle deg
:documentation
   .ast/.asf automatically generated from VICON data using
   VICON BodyBuilder and BodyLanguage model FoxedUp or BRILLIANT.MOD
:root
   order TX TY TZ RX RY RZ
   axis XYZ
   position 0 0 0  
   orientation 0 0 0 
:bonedata
  begin
     id 1 
     name lhipjoint
     direction 0.566809 -0.746272 0.349008 
     length 2.40479 
     axis 0 0 0  XYZ
  end
  begin
     id 2 
     name lfemur
     direction 0.34202 -0.939693 0  
     length 7.1578  
     axis 0 0 20  XYZ
    dof rx ry rz
    limits (-160.0 20.0)
           (-70.0 70.0)
           (-60.0 70.0)
  end
  begin
     id 3 
     name ltibia
     direction 0.34202 -0.939693 0   
     length 7.49137   
     axis 0 0 20   XYZ
    dof rx
    limits (-10.0 170.0)
  end
  begin
     id 4 
     name lfoot
     direction 0.0665746 -0.182912 0.980873   
     length 2.36784   
     axis -90 7.62852e-016 20   XYZ
    dof rx rz
    limits (-45.0 90.0)
           (-70.0 20.0)
  end
  begin
     id 5 
     name ltoes
     direction 1.53601e-011 -4.22058e-011 1   
     length 1.18966   
     axis -90 7.62852e-016 20   XYZ
    dof rx
    limits (-90.0 20.0)
  end
  begin
     id 6 
     name rhipjoint
     direction -0.550236 -0.756381 0.353735   
     length 2.37265  
     axis 0 0 0  XYZ 
  end
  begin
     id 7 
     name rfemur
     direction -0.34202 -0.939693 0   
     length 7.43386   
     axis 0 0 -20   XYZ
    dof rx ry rz
    limits (-160.0 20.0)
           (-70.0 70.0)
           (-70.0 60.0)
  end
  begin
     id 8 
     name rtibia
     direction -0.34202 -0.939693 0   
     length 7.50908   
     axis 0 0 -20   XYZ
    dof rx
    limits (-10.0 170.0)
 end
 begin
     id 9 
     name rfoot
     direction -0.0683029 -0.187661 0.979856   
     length 2.41173  
     axis -90 -7.62852e-016 -20   XYZ
    dof rx rz
    limits (-45.0 90.0)
           (-20.0 70.0)
  end
  begin
     id 10 
     name rtoes
     direction -1.53528e-011 -4.21968e-011 1   
     length 1.21082   
     axis -90 -7.62852e-016 -20   XYZ
    dof rx
    limits (-90.0 20.0)
  end
  begin
     id 11 
     name lowerback
     direction 0.013823 0.995423 -0.0945635   
     length 2.04495   
     axis 0 0 0   XYZ
    dof rx ry rz
    limits (-20.0 45.0)
           (-30.0 30.0)
           (-30.0 30.0)
  end
  begin
     id 12 
     name upperback
     direction 0.0276657 0.9994 -0.020853   
     length 2.05008   
     axis 0 0 0   XYZ
    dof rx ry rz
    limits (-20.0 45.0)
           (-30.0 30.0)
           (-30.0 30.0)
  end
  begin
     id 13 
     name thorax
     direction 0.019782 0.999531 0.0233827   
     length 2.06488   
     axis 0 0 0   XYZ
    dof rx ry rz
    limits (-20.0 45.0)
           (-30.0 30.0)
           (-30.0 30.0)
  end
  begin
     id 14 
     name lowerneck
     direction -0.0308541 0.994709 0.0979874   
     length 1.75553   
     axis 0 0 0   XYZ
    dof rx ry rz
    limits (-20.0 45.0)
           (-30.0 30.0)
           (-30.0 30.0)
  end
  begin
     id 15 
     name upperneck
     direction 0.0588398 0.995804 -0.0700903   
     length 1.76878   
     axis 0 0 0   XYZ
    dof rx ry rz
    limits (-20.0 45.0)
           (-30.0 30.0)
           (-30.0 30.0)
  end
  begin
     id 16
     name head
     direction 0.0209966 0.999159 -0.0352225  
     length 1.77193  
     axis 0 0 0   XYZ
    dof rx ry rz
    limits (-20.0 45.0)
           (-30.0 30.0)
           (-30.0 30.0)
  end
  begin
     id 17 
     name lclavicle
     direction 0.938182 0.335073 -0.0868338  
     length 3.58396  
     axis 0 0 0   XYZ
    dof ry rz
    limits (-20.0 10.0)
           (0.0 20.0)
  end
  begin
     id 18 
     name lhumerus
     direction 1 -4.48971e-011 -1.26313e-017   
     length 4.983   
     axis 180 -30 -90   XYZ
    dof rx ry rz
    limits (-60.0 90.0)
           (-90.0 90.0)
           (-90.0 90.0)
  end
  begin
     id 19
     name lradius
     direction 1 -4.48948e-011 -5.89033e-027   
     length 3.48356   
     axis 180 -30 -90   XYZ
    dof rx
    limits (-10.0 170.0)
  end
  begin
     id 20
     name lwrist
     direction 1 -4.48977e-011 -1.48983e-026   
     length 1.74178   
     axis 9.0955e-015 90 90   XYZ
    dof ry
    limits (-180.0 0.0)
 end
  begin
     id 21 
     name lhand
     direction 1 -4.49046e-011 -2.98066e-026   
     length 0.715259   
     axis 1.90115e-014 90 90   XYZ
    dof rx rz
    limits (-90.0 90.0)
           (-45.0 45.0)
  end
  begin
     id 22 
     name lfingers
     direction 1 -4.48907e-011 -5.95731e-026   
     length 0.576661   
     axis 3.80223e-014 90 90   XYZ
    dof rx
    limits (0.0 90.0)
  end
  begin
     id 23
     name lthumb
     direction 0.707107 -6.34963e-011 0.707107   
     length 0.827973   
     axis -90 45 -3.84942e-014   XYZ
    dof rx rz
    limits (-45.0 45.0)
           (-45.0 45.0)
  end
  begin
     id 24 
     name rclavicle
     direction -0.909637 0.398485 -0.11735   
     length 3.44819  
     axis 0 0 0   XYZ 
    dof ry rz
    limits (-10.0 20.0)
           (-20.0 0.0)
  end
  begin
     id 25 
     name rhumerus
     direction -1 -4.48978e-011 -1.09333e-027  
     length 5.2419   
     axis 180 30 90   XYZ
    dof rx ry rz
    limits (-90.0 60.0)
           (-90.0 90.0)
           (-90.0 90.0)
  end
  begin
     id 26 
     name rradius
     direction -1 -4.48953e-011 -7.61841e-027   
     length 3.44417   
     axis 180 30 90   XYZ
    dof rx
    limits (-10.0 170.0)
  end
  begin
     id 27 
     name rwrist
     direction -1 -4.48977e-011 -1.48983e-026   
     length 1.72209   
     axis 9.0955e-015 -90 -90   XYZ
    dof ry
    limits (-180.0 0.0)
  end
  begin
     id 28
     name rhand
     direction -1 -4.49027e-011 -2.98038e-026   
     length 0.622529   
     axis 1.90115e-014 -90 -90   XYZ
    dof rx rz
    limits (-90.0 90.0)
           (-45.0 45.0)
  end
  begin
     id 29
     name rfingers
     direction -1 -4.48838e-011 -5.95531e-026   
     length 0.501899   
     axis 3.80223e-014 -90 -90   XYZ
    dof rx
    limits (0.0 90.0)
  end
  begin
     id 30
     name rthumb
     direction -0.707107 -6.34937e-011 0.707107   
     length 0.720629   
     axis -90 -45 3.84942e-014   XYZ
    dof rx rz
    limits (-45.0 45.0)
           (-45.0 45.0)
  end
:hierarchy
  begin
    root lhipjoint rhipjoint lowerback
    lhipjoint lfemur
    lfemur ltibia
    ltibia lfoot
    lfoot ltoes
    rhipjoint rfemur
    rfemur rtibia
    rtibia rfoot
    rfoot rtoes
    lowerback upperback
    upperback thorax
    thorax lowerneck lclavicle rclavicle
    lowerneck upperneck
    upperneck head
    lclavicle lhumerus
    lhumerus lradius
    lradius lwrist
    lwrist lhand lthumb
    lhand lfingers
    rclavicle rhumerus
    rhumerus rradius
    rradius rwrist
    rwrist rhand rthumb
    rhand rfingers
  end

#!OML:ASF F:\VICON\USERDATA\Patient Classification 1\PLAYGROUND\JustinFriday\JustinFriday.ASF
:FULLY-SPECIFIED
:DEGREES
605
root 30.7877 31.1117 -10.6495 8.74441 -16.2645 -11.2377
lowerback 20.6778 1.96837 6.31857
upperback 4.567 3.96118 1.69169
thorax -6.25136 1.80594 -2.75968
lowerneck -5.86121 -0.399661 -0.379104
upperneck 27.7442 0.421365 -3.82574
head 9.72262 -0.27733 -1.23398
rclavicle 5.46658e-014 -1.59028e-015
rhumerus -9.80278 -42.4458 -39.4248
rradius 112.731
rwrist 20.0942
rhand -7.64166 -33.3703
rfingers 7.12502
rthumb 18.2536 -62.5339
lclavicle 5.46658e-014 -1.59028e-015
lhumerus 49.0324 20.0829 48.8789
lradius 85.4074
lwrist -9.59994
lhand 16.9701 -1.73289
lfingers 7.12502
lthumb 41.7028 22.956
rfemur -8.69382 -11.6122 37.3028
rtibia 30.7626
rfoot -24.1737 -20.97
rtoes 2.9837
lfemur -35.7775 8.96978 -14.1615
ltibia 49.0016
lfoot -16.6106 -7.73784
ltoes -5.83521
606
root 30.7878 31.1128 -10.6497 8.69688 -15.7622 -11.0894
lowerback 20.9684 2.24232 6.31676
upperback 4.4615 4.35314 1.76341
thorax -6.49137 1.98433 -2.79634
lowerneck -6.04288 -0.787498 0.0486297
upperneck 27.8219 -0.137124 -3.97592
head 9.77013 -0.504377 -1.41694
rclavicle -5.73494e-014 1.19271e-015
rhumerus -11.419 -43.3087 -37.6216
rradius 112.869
rwrist 20.0803
rhand -8.14985 -33.4162
rfingers 7.12502
rthumb 17.7646 -62.6248
lclavicle -5.73494e-014 1.19271e-015
lhumerus 49.7242 19.1023 49.6921
lradius 85.3717
lwrist -9.9755
lhand 16.5411 -1.85043
lfingers 7.12502
lthumb 41.3002 22.9698
rfemur -8.63054 -11.7982 37.3119
rtibia 30.4445
rfoot -24.3237 -21.2341
rtoes 3.52281
lfemur -35.8048 9.17905 -14.6768
ltibia 48.936
lfoot -16.8904 -6.64505
ltoes -8.81564
607
root 30.7827 31.11 -10.6545 8.63212 -15.1093 -11.0579
lowerback 21.6276 2.63422 6.24992
upperback 4.25708 4.92697 1.92929
thorax -7.03378 2.23616 -2.77085
lowerneck -6.70222 -1.2211 0.985824
upperneck 28.2524 -0.760774 -4.40774
head 10.0265 -0.743885 -1.80745
rclavicle -3.90612e-014 -1.09332e-014
rhumerus -13.3831 -44.287 -35.4416
rradius 112.936
rwrist 20.1096
rhand -8.247 -33.4825
rfingers 7.12502
rthumb 17.6712 -62.6995
lclavicle -3.90612e-014 -1.09332e-014
lhumerus 50.6147 17.8081 50.7298
lradius 85.5179
lwrist -9.95308
lhand 16.4205 -2.00112
lfingers 7.12502
lthumb 41.187 22.8555
rfemur -8.54116 -11.9976 37.4961
rtibia 30.1585
rfoot -24.8999 -21.3462
rtoes 5.40848
lfemur -35.8185 9.38906 -15.012
ltibia 48.7501
lfoot -15.7997 -6.70128
ltoes -6.22137
608
root 30.7774 31.1211 -10.6437 8.62556 -14.958 -11.0278
lowerback 22.3536 3.05335 5.99908
upperback 4.06184 5.49321 2.05748
thorax -7.62071 2.48398 -2.69595
lowerneck -7.73244 -1.48241 1.58395
upperneck 28.804 -1.12682 -4.737
head 10.4093 -0.891421 -2.09245
rclavicle 4.84041e-014 -1.10325e-014
rhumerus -14.8258 -44.9472 -33.8174
rradius 112.944
rwrist 20.2715
rhand -8.96325 -32.5361
rfingers 7.12502
rthumb 16.9818 -61.8138
lclavicle 4.84041e-014 -1.10325e-014
lhumerus 51.2686 16.9269 51.616
lradius 85.7727
lwrist -9.44654
lhand 16.9517 -1.73783
lfingers 7.12502
lthumb 41.6854 22.9567
rfemur -8.37481 -11.741 37.5423
rtibia 29.8799
rfoot -25.3582 -21.4677
rtoes 7.21954
lfemur -35.7075 9.77103 -15.3454
ltibia 48.4609
lfoot -16.2132 -5.83922
ltoes -6.77222
609
root 30.7715 31.1316 -10.6439 8.53492 -14.5749 -10.6834
lowerback 21.3315 2.55629 6.18409
upperback 4.44733 4.77259 1.87235
thorax -6.68278 2.1816 -2.73076
lowerneck -6.52216 -0.986616 1.0535
upperneck 27.7681 -0.405167 -4.5797
head 9.82528 -0.585271 -1.83142
rclavicle -8.54774e-015 1.39149e-014
rhumerus -13.4953 -44.7634 -35.3013
rradius 112.812
rwrist 20.7461
rhand -10.1658 -31.3652
rfingers 7.12502
rthumb 15.824 -60.7385
lclavicle -8.54774e-015 1.39149e-014
lhumerus 50.8527 17.8224 51.0686
lradius 86.0364
lwrist -8.72044
lhand 18.0985 -0.870378
lfingers 7.12502
lthumb 42.7598 23.4599
rfemur -8.27428 -11.5036 37.3794
rtibia 29.56
rfoot -25.3506 -22.1138
rtoes 7.38743
lfemur -35.6545 9.85401 -15.9336
ltibia 48.1119
lfoot -16.1772 -5.43823
ltoes -6.76174
610
root 30.7712 31.1418 -10.6443 8.45385 -14.0145 -10.3121
lowerback 22.2036 2.80637 5.71829
upperback 4.17563 5.0841 1.96481
thorax -7.4652 2.30392 -2.51638
lowerneck -7.96009 -1.59354 1.24842
upperneck 28.8977 -1.28364 -4.49377
head 10.4899 -0.972119 -1.96946
rclavicle 8.44835e-016 -4.87022e-015
rhumerus -14.8874 -45.3467 -33.7085
rradius 112.77
rwrist 21.1226
rhand -10.614 -30.6339
rfingers 7.12502
rthumb 15.3923 -60.0409
lclavicle 8.44835e-016 -4.87022e-015
lhumerus 51.2474 16.9955 51.7234
lradius 86.2146
lwrist -8.47788
lhand 18.7459 -0.346881
lfingers 7.12502
lthumb 43.3651 23.7688
rfemur -8.21952 -11.4149 37.1957
rtibia 29.2061
rfoot -25.1793 -22.7403
rtoes 6.87107
lfemur -35.6137 9.65866 -16.4604
ltibia 47.7518
lfoot -15.6854 -5.64697
ltoes -4.63187
611
root 30.7739 31.1545 -10.6388 8.53278 -13.6257 -10.3334
lowerback 21.5969 2.22101 6.41577
upperback 4.13789 4.42264 1.74442
thorax -7.16213 1.9849 -2.93741
lowerneck -6.20663 -1.03622 1.03243
upperneck 27.7252 -0.507437 -4.44341
head 9.74626 -0.616558 -1.78577
rclavicle 1.49089e-014 -4.4329e-014
rhumerus -14.2093 -44.8525 -34.8415
rradius 112.641
rwrist 21.9965
rhand -10.2401 -29.634
rfingers 7.12502
rthumb 15.7525 -59.0129
lclavicle 1.49089e-014 -4.4329e-014
lhumerus 50.4737 17.456 51.0225
lradius 86.3768
lwrist -8.6289
lhand 18.9815 -0.378266
lfingers 7.12502
lthumb 43.5851 23.6576
rfemur -8.19726 -11.3248 37.3168
rtibia 28.8989
rfoot -25.1357 -23.0263
rtoes 6.86427
lfemur -35.5866 9.69073 -16.574
ltibia 47.3985
lfoot -15.16 -6.09017
ltoes -2.09108
612
root 30.7807 31.1738 -10.6167 8.49085 -13.0492 -10.2836
lowerback 21.9352 2.38627 6.50693
upperback 4.04423 4.70147 1.85399
thorax -7.42096 2.10449 -2.96539
lowerneck -6.89471 -1.2555 1.82109
upperneck 28.1526 -0.78897 -4.9849
head 10.0135 -0.727848 -2.1584
rclavicle -2.29596e-014 -1.70955e-014
rhumerus -15.5167 -45.7322 -33.3501
rradius 112.592
rwrist 22.9266
rhand -9.28158 -28.3782
rfingers 7.12502
rthumb 16.6754 -57.6819
lclavicle -2.29596e-014 -1.70955e-014
lhumerus 51.0817 16.5688 51.8891
lradius 86.4886
lwrist -8.77869
lhand 19.0464 -0.362803
lfingers 7.12502
lthumb 43.6458 23.6509
rfemur -8.03816 -11.6318 37.2778
rtibia 28.6261
rfoot -25.1443 -23.1697
rtoes 6.97837
lfemur -35.4116 9.58738 -16.7997
ltibia 47.04
lfoot -15.0439 -6.27287
ltoes -1.91476
613
root 30.7896 31.203 -10.5852 8.39009 -12.533 -9.93518
lowerback 21.9323 2.44922 6.41827
upperback 4.10485 4.76105 1.86515
thorax -7.35588 2.13949 -2.91686
lowerneck -7.42763 -1.39639 2.25342
upperneck 28.3981 -0.936889 -5.43168
head 10.1925 -0.802508 -2.42071
rclavicle -3.15819e-014 9.14409e-015
rhumerus -16.3444 -46.5375 -32.3128
rradius 112.575
rwrist 23.7913
rhand -9.35541 -27.316
rfingers 7.12502
rthumb 16.6043 -56.6257
lclavicle -3.15819e-014 9.14409e-015
lhumerus 51.4077 16.0601 52.3897
lradius 86.6002
lwrist -8.99215
lhand 18.7538 -0.446955
lfingers 7.12502
lthumb 43.3724 23.6661
rfemur -7.85961 -11.9688 36.8631
rtibia 28.3706
rfoot -24.8676 -23.27
rtoes 7.03519
lfemur -35.1919 9.38953 -17.3649
ltibia 46.6472
lfoot -14.843 -6.34641
ltoes -1.334
614
root 30.7999 31.2229 -10.5665 8.49533 -12.1595 -9.69127
lowerback 21.5676 2.46646 6.55215
upperback 4.07724 4.78204 1.78667
thorax -7.17328 2.15543 -3.06075
lowerneck -6.81606 -1.60629 2.1779
upperneck 28.1357 -1.23536 -5.35782
head 9.96443 -0.930537 -2.39447
rclavicle -5.19325e-014 -1.24737e-014
rhumerus -17.1919 -46.9393 -31.4859
rradius 112.607
rwrist 24.2208
rhand -10.1822 -27.0273
rfingers 7.12502
rthumb 15.8082 -56.4018
lclavicle -5.19325e-014 -1.24737e-014
lhumerus 51.4097 15.5332 52.5911
lradius 86.7433
lwrist -9.44137
lhand 18.1538 -0.657208
lfingers 7.12502
lthumb 42.8115 23.655
rfemur -7.96899 -12.0144 36.598
rtibia 28.2005
rfoot -24.346 -23.3829
rtoes 6.78145
lfemur -35.2189 9.24826 -17.8261
ltibia 46.2209
lfoot -14.2754 -6.48146
ltoes -0.194671
615
root 30.8127 31.2369 -10.5467 8.56597 -11.5546 -9.67721
lowerback 21.4275 2.3529 6.99927
upperback 4.03962 4.72601 1.77884
thorax -7.10704 2.12241 -3.2978
lowerneck -6.78638 -1.71018 2.36053
upperneck 28.2402 -1.36785 -5.5014
head 9.98652 -0.98611 -2.49223
rclavicle -1.89467e-014 1.57785e-014
rhumerus -17.8582 -47.3504 -30.818
rradius 112.756
rwrist 24.2822
rhand -9.94916 -26.8666
rfingers 7.12502
rthumb 16.0326 -56.2232
lclavicle -1.89467e-014 1.57785e-014
lhumerus 51.3283 15.0174 52.8023
lradius 86.988
lwrist -9.70244
lhand 17.354 -0.760326
lfingers 7.12502
lthumb 42.0626 23.8087
rfemur -8.11959 -12.197 36.5928
rtibia 28.2086
rfoot -23.9828 -23.4067
rtoes 6.4574
lfemur -35.1681 8.93042 -17.9779
ltibia 45.7806
lfoot -13.7374 -6.70769
ltoes 0.865644
616
root 30.8216 31.2583 -10.5153 8.45706 -11.1511 -9.67212
lowerback 21.2638 2.23102 7.38243
upperback 4.13782 4.6316 1.77948
thorax -6.88982 2.0819 -3.47385
lowerneck -7.12783 -1.75483 2.77513
upperneck 28.5529 -1.4002 -5.86864
head 10.1559 -1.00052 -2.71312
rclavicle -8.52056e-015 1.06567e-014
rhumerus -18.2871 -47.7743 -30.3597
rradius 113.082
rwrist 24.0765
rhand -9.3877 -26.6112
rfingers 7.12502
rthumb 16.5732 -55.9235
lclavicle -8.52056e-015 1.06567e-014
lhumerus 51.1307 14.7916 52.9612
lradius 87.3252
lwrist -9.79718
lhand 16.7308 -0.882678
lfingers 7.12502
lthumb 41.4783 23.8798
rfemur -8.06889 -12.3665 36.4974
rtibia 28.3893
rfoot -23.6377 -23.3669
rtoes 5.66089
lfemur -34.7827 8.71263 -18.0501
ltibia 45.3449
lfoot -13.4153 -6.84396
ltoes 1.45008
617
root 30.8292 31.2766 -10.4881 8.37539 -10.8987 -9.49669
lowerback 21.1827 2.20425 7.53048
upperback 4.15526 4.61754 1.73138
thorax -6.8125 2.07663 -3.59953
lowerneck -6.67617 -1.65898 3.02248
upperneck 28.1254 -1.23185 -6.1603
head 9.91318 -0.922564 -2.82155
rclavicle 1.29272e-014 -1.41758e-014
rhumerus -19.1117 -48.1381 -29.5358
rradius 113.524
rwrist 23.7727
rhand -9.26495 -26.5252
rfingers 7.12502
rthumb 16.6914 -55.8276
lclavicle 1.29272e-014 -1.41758e-014
lhumerus 50.907 14.4966 53.1137
lradius 87.6055
lwrist -10.0885
lhand 16.2247 -1.12549
lfingers 7.12502
lthumb 41.0032 23.7899
rfemur -8.17075 -12.4399 36.2367
rtibia 28.6847
rfoot -23.0116 -23.5964
rtoes 3.64139
lfemur -34.4459 8.59504 -18.3351
ltibia 44.9055
lfoot -13.1343 -6.74551
ltoes 1.03554
618
root 30.8357 31.2937 -10.4673 8.42109 -10.6015 -9.30997
lowerback 21.1636 2.36445 7.52084
upperback 4.1259 4.82675 1.75238
thorax -6.81465 2.17734 -3.62278
lowerneck -6.3326 -1.94333 3.07838
upperneck 27.7864 -1.60678 -6.28236
head 9.69977 -1.09522 -2.89243
rclavicle 2.84759e-014 -8.05078e-015
rhumerus -20.4018 -48.7541 -28.1102
rradius 113.973
rwrist 23.54
rhand -9.00279 -26.5455
rfingers 7.12502
rthumb 16.9438 -55.8264
lclavicle 2.84759e-014 -8.05078e-015
lhumerus 50.9876 13.8935 53.5366
lradius 87.8279
lwrist -10.4969
lhand 15.687 -1.42117
lfingers 7.12502
lthumb 40.4979 23.6527
rfemur -8.54445 -12.5047 36.0126
rtibia 29.0928
rfoot -21.9832 -23.9655
rtoes 1.2363
lfemur -34.2963 8.52956 -18.6395
ltibia 44.4385
lfoot -12.6622 -6.82923
ltoes 1.79162
619
root 30.8415 31.3174 -10.4437 8.42269 -10.4615 -9.12248
lowerback 21.2322 2.6371 7.41799
upperback 4.12196 5.16683 1.77012
thorax -6.82931 2.3422 -3.63425
lowerneck -6.66637 -2.39041 2.80911
upperneck 28.2219 -2.26885 -5.93246
head 9.89644 -1.39023 -2.80541
rclavicle 3.55328e-014 -2.71341e-014
rhumerus -21.8403 -49.4091 -26.5762
rradius 114.469
rwrist 23.2912
rhand -8.70635 -26.8444
rfingers 7.12502
rthumb 17.2291 -56.1006
lclavicle 3.55328e-014 -2.71341e-014
lhumerus 51.1446 13.214 53.9284
lradius 88.1244
lwrist -10.4409
lhand 15.2439 -1.48181
lfingers 7.12502
lthumb 40.0812 23.7197
rfemur -8.83513 -12.5427 35.6927
rtibia 29.602
rfoot -21.1716 -23.9168
rtoes 0.127818
lfemur -34.0055 8.49441 -18.8511
ltibia 43.9254
lfoot -12.2342 -7.19362
ltoes 4.59663
